<?xml version="1.0" encoding="UTF-8"?>
<svg id="Layer_2" data-name="Layer 2" xmlns="http://www.w3.org/2000/svg" viewBox="0 0 127.59 128.83">
  <defs>
    <style>
      .cls-1 {
        fill: #212020;
      }
    </style>
  </defs>
  <g id="Layer_1-2" data-name="Layer 1">
    <path class="cls-1" d="M54.84,128.83l13.82-29.71-7.48-7.89c-5.53-5.83-7.21-7.6-7.67-8.25l-.08.06c-1.21-1.62-1.49-5.54-1.49-6.79,0-1.96.12-3.94.25-6.04.15-2.42.31-4.92.31-7.78,0-7.12-3.13-10.29-10.17-10.29h-13.79l-6.18,29.25H0L17.19,0h40.58c13.26,0,26.82,2.54,26.82,21.34,0,12.46-6.23,20.44-17.59,22.64,4.99,1.8,7.14,5.91,7.14,13.39,0,3.11-.09,5.79-.18,8.39-.08,2.26-.15,4.4-.15,6.56,0,2.79.72,7.03,2.3,9.92h2.39l16.42-27.74,4.44,27.93h28.22l-25.47,17.83,4.08,27.85-21.87-16.8-29.5,17.53ZM54.21,82.43c.45.49,10.23,10.8,15.41,16.26l.23.25-12.74,27.39,27.3-16.22,20.45,15.71-3.81-26.02,23.37-16.36h-25.9l-4.14-26.03-15.3,25.84h-3.54l-.14-.25c-1.78-3.07-2.58-7.57-2.58-10.67,0-2.18.07-4.32.15-6.6.09-2.59.18-5.27.18-8.36,0-7.8-2.31-11.53-7.98-12.9l-.38-.09v-1.06l.43-.06c15.19-2.11,18.38-13.09,18.38-21.92,0-17.92-13.05-20.34-25.82-20.34H18L1.23,80.4h20.33l6.18-29.25h14.6c7.51,0,11.17,3.69,11.17,11.29,0,2.89-.16,5.41-.31,7.84-.13,2.08-.25,4.05-.25,5.97,0,1.8.4,4.99,1.27,6.17ZM48.71,37.09h-17.58l4.27-20.38h16.19c7.94,0,11.97,2.97,11.97,8.84,0,7.66-5,11.54-14.85,11.54ZM32.36,36.09h16.35c9.32,0,13.85-3.45,13.85-10.54,0-5.28-3.59-7.84-10.97-7.84h-15.38l-3.85,18.38Z"/>
  </g>
</svg>